<?xml version="1.0" standalone="no"?>
<!DOCTYPE svg PUBLIC "-//W3C//DTD SVG 20010904//EN"
 "http://www.w3.org/TR/2001/REC-SVG-20010904/DTD/svg10.dtd">
<svg version="1.0" xmlns="http://www.w3.org/2000/svg"
 width="231.000000pt" height="140.000000pt" viewBox="0 0 231.000000 140.000000"
 preserveAspectRatio="xMidYMid meet">

<g transform="translate(0.000000,140.000000) scale(0.100000,-0.100000)"
fill="#000000" stroke="none">
<path d="M331 1064 c-148 -40 -240 -174 -197 -289 22 -56 54 -77 111 -74 34 2
50 -2 68 -19 13 -12 29 -22 35 -22 18 0 15 -20 -17 -86 -50 -105 -123 -171
-183 -162 -34 5 -35 42 -2 89 22 33 26 45 18 66 -22 62 -115 48 -149 -22 -51
-108 39 -215 181 -215 140 0 258 114 298 288 14 61 42 84 53 42 7 -27 30 -22
55 11 28 37 17 66 -27 75 -18 3 -39 3 -46 -2 -21 -13 -3 61 25 103 31 45 22
60 -28 43 -37 -12 -73 -54 -115 -137 -14 -29 -28 -43 -42 -43 -28 0 -33 23
-14 60 23 45 7 83 -33 78 -23 -3 -30 -11 -44 -53 -13 -41 -21 -51 -41 -53 -56
-7 -86 72 -53 136 31 59 103 102 171 102 20 0 90 -18 155 -40 65 -22 133 -40
150 -40 44 0 84 26 109 70 33 59 25 132 -11 97 -43 -43 -81 -44 -227 -6 -87
22 -126 23 -200 3z"/>
<path d="M902 1003 c-11 -16 -30 -48 -42 -73 -36 -70 -146 -232 -201 -295 -36
-41 -47 -61 -40 -68 8 -8 21 -1 46 23 l35 34 -26 -66 c-30 -76 -27 -114 11
-128 47 -18 137 28 196 99 l29 36 0 -33 c0 -40 23 -88 49 -102 32 -17 102 -11
150 11 30 14 85 61 153 132 111 114 138 128 138 69 0 -24 -10 -37 -53 -70 -68
-51 -106 -118 -89 -156 9 -20 19 -26 42 -26 26 0 33 6 46 35 7 19 14 47 14 62
0 29 24 73 40 73 4 0 13 -23 19 -52 15 -66 25 -78 69 -78 31 0 46 11 137 104
l102 104 -28 -67 c-33 -77 -36 -112 -11 -134 35 -32 78 -16 175 65 l47 40 0
-32 c0 -43 47 -90 90 -90 45 0 92 23 134 64 20 21 41 34 46 31 28 -17 130 50
130 86 0 17 -35 9 -54 -12 -32 -38 -41 -8 -17 60 25 72 26 93 6 130 -16 31
-33 41 -73 41 -54 0 -112 -41 -224 -161 -62 -66 -116 -115 -121 -110 -4 4 8
46 27 94 20 47 36 93 36 101 0 9 -12 29 -27 45 -39 42 -57 31 -142 -83 -130
-176 -170 -207 -191 -150 -22 58 -14 77 53 114 46 26 67 45 81 74 17 35 18 42
5 65 -17 31 -50 38 -72 17 -9 -9 -23 -41 -32 -71 -9 -31 -23 -59 -34 -65 -18
-9 -20 -5 -26 45 -8 60 -31 87 -65 78 -11 -3 -61 -52 -111 -110 -160 -181
-234 -236 -274 -203 -23 19 -18 37 16 49 17 6 53 27 80 47 96 70 126 151 73
193 -61 48 -140 8 -285 -141 -85 -88 -111 -110 -121 -100 -9 9 8 52 80 197 51
103 92 194 92 205 0 19 -46 80 -60 80 -5 0 -17 -12 -28 -27z m1293 -263 c3 -5
0 -28 -6 -50 -10 -32 -20 -44 -46 -55 -31 -13 -34 -17 -31 -55 3 -51 -30 -92
-56 -70 -23 19 -20 40 19 116 50 100 100 147 120 114z m-1015 -19 c0 -22 -42
-76 -71 -92 -33 -17 -23 23 17 69 39 46 54 52 54 23z"/>
<path d="M1893 1005 c-30 -21 -49 -85 -34 -114 17 -32 84 -30 115 4 50 54 35
125 -27 125 -18 0 -42 -7 -54 -15z"/>
</g>
</svg>
